<?xml version="1.0" encoding="utf-8"?>
<!-- Generator: Adobe Illustrator 22.1.0, SVG Export Plug-In . SVG Version: 6.00 Build 0)  -->
<svg version="1.1" id="Layer_1" xmlns="http://www.w3.org/2000/svg" xmlns:xlink="http://www.w3.org/1999/xlink" x="0px" y="0px"
	 viewBox="0 0 390.1 75.3" width="390.1" height="75.3" style="enable-background:new 0 0 390.1 75.3;" xml:space="preserve">
<style type="text/css">
	.st0{filter:url(#Adobe_OpacityMaskFilter);}
	.st1{fill:#FFFFFF;}
	.st2{mask:url(#b_1_);fill:#FEFEFE;}
	.st3{filter:url(#Adobe_OpacityMaskFilter_1_);}
	.st4{mask:url(#d_1_);fill:#E42529;}
</style>
<g>
	<g transform="matrix(-1 0 0 1 391 0)">
		<defs>
			<filter id="Adobe_OpacityMaskFilter" filterUnits="userSpaceOnUse">
				<feColorMatrix  type="matrix" values="1 0 0 0 0  0 1 0 0 0  0 0 1 0 0  0 0 0 1 0"/>
			</filter>
		</defs>
		<mask maskUnits="userSpaceOnUse" id="b_1_">
			<g class="st0">
				<path id="a_1_" class="st1" d="M0.9,75.3h156V0.2H0.9V75.3z"/>
			</g>
		</mask>
		<path class="st2" d="M154.5,0.2c0,0-14.4-1.6-36.2,15.2L42.2,62.1c0,0-27.7,13.2-41.3,13.2h156L154.5,0.2z"/>
	</g>
	<g transform="matrix(-1 0 0 1 365.315 0)">
		<defs>
			<filter id="Adobe_OpacityMaskFilter_1_" filterUnits="userSpaceOnUse">
				<feColorMatrix  type="matrix" values="1 0 0 0 0  0 1 0 0 0  0 0 1 0 0  0 0 0 1 0"/>
			</filter>
		</defs>
		<mask maskUnits="userSpaceOnUse" id="d_1_">
			<g class="st3">
				<path id="c_1_" class="st1" d="M182.9,75.3h182.4V0H0.5v75.3H182.9z"/>
			</g>
		</mask>
		<path class="st4" d="M129.9,0c-15.7,1.3-26.8,11.3-38.7,19.9C74.6,32,58.2,44.8,41,56.2c-11.3,7.5-26.1,16.3-40.6,19h364.8V0
			H129.9z"/>
	</g>
</g>
</svg>
