<svg xmlns="http://www.w3.org/2000/svg" width="35" height="35" viewBox="0 0 35 35">
    <g fill="#FFF" fill-rule="evenodd">
        <path d="M19.072 33.445c-3.839.187-7.407-1.13-10.153-3.447l-.016.016c2.842 2.816 6.774 4.473 11.044 4.262 8.168-.402 14.473-7.484 14.074-15.808-.198-4.21-2.072-7.935-4.931-10.53l-.018.014a15.17 15.17 0 0 1 4.07 9.68c.401 8.329-5.9 15.406-14.07 15.813M2.494 24.524c-.483.258-.596.66-.369 1.286.213.571.554.825.933.68.304-.114.356-.377.245-1.061l-.045-.267c-.108-.67-.124-.959-.039-1.244.084-.325.27-.531.552-.64.677-.255 1.297.184 1.659 1.144.38 1.046.148 1.828-.655 2.147l-.187-.514c.555-.232.71-.756.427-1.515-.227-.62-.604-.901-1.014-.74-.327.118-.409.426-.304 1.126l.037.298.039.257c.078.517.082.707.032.923a.817.817 0 0 1-.526.58c-.637.243-1.234-.148-1.554-1.019-.348-.949-.134-1.64.579-1.948l.19.507zM2.186 19.064l2.284-1.875-.001.707-1.934 1.567.6.705 1.337.005-.002.56H.657l-.001-.556 1.5-.002.203.003h.195l-.124-.14-.125-.14-1.65-1.896-.004-.743zM3.999 13.078l1.459.558-.187.525-1.464-.563-2.656.755.235-.637 1.646-.428.209-.053a1.85 1.85 0 0 1 .277-.062c-.123-.16-.155-.196-.282-.391l-.988-1.414.226-.607 1.525 2.317zM6.732 5.985l-.826.992 2.363 2.061-.59.709-2.366-2.062-.833.987-.53-.472 2.244-2.676zM11.966 2.41l-1.952 1.107.391.73 1.796-1.017.318.581-1.794 1.016.46.838 1.984-1.129.348.63-2.79 1.579L8.866 3.34l2.755-1.56zM19.32 4.08l-.997.051-.475-.854-1.55.22-.236.95-.952.229L16.2.441l.945-.129L19.32 4.08zm-2.138-2.05a5.408 5.408 0 0 1-.396-.802c-.037.28-.079.481-.183.88l-.17.744 1.11-.16-.361-.662zM25.425 5.464l-.793-.329.333-1.152c.03-.13.087-.317.158-.553.066-.247.13-.433.172-.572.052-.154.105-.316.156-.483l.095-.277c-.227.391-.323.524-.536.84-.091.137-.177.255-.246.352l-1.113 1.523-.692-.201-.178-1.864a4.15 4.15 0 0 1-.026-.417 17.265 17.265 0 0 1-.018-.558c-.003-.107 0-.26.007-.473l-.108.47c-.124.508-.185.73-.346 1.34l-.338 1.245-.846-.154L22.139.415l1.284.278.143 1.808c.037.422.038.779.01 1.28.147-.285.202-.379.376-.639.117-.171.212-.319.3-.455l1.04-1.444 1.207.446-1.074 3.775z"/>
        <path d="M17.974 12.8c-.47.406-1.41 1.281-2.312 2.129l-1.023.964a12.982 12.982 0 0 0-2.46-.278c-1.857-.043-3.573.443-4.371 1.235-.296.303-.456.635-.454.987-.002.92 1.022 1.403 1.334 1.531 1.639.66 3.023.512 4.504-.5.818-.555 1.802-1.454 2.573-2.175.585.149 1.245.342 1.963.574l.651.21c-.87.84-1.77 1.727-2.6 2.442l-.069.058c-1.15.988-1.99 1.711-3.177 1.953-.834.169-1.424-.022-1.617-.144-.02.002-.042.035-.042.035.672.59 1.311.93 2.434.857 1.064-.07 2.307-.726 3.585-1.901l1.735-1.658 1.213-1.178c0 .007 2.388.77 2.388.77.018.004.045.014.045.014-.027 0-1.522 1.442-1.522 1.442l-1.301 1.266c-1.334 1.268-2.063 1.92-2.842 2.463-1.277.883-2.368 1.336-3.325 1.379-.492.024-1.208-.03-1.787-.394-.031-.007-.063.024-.063.024.626.576 1.41 1.272 2.772 1.263 1.536-.016 2.917-.74 5.087-2.681.986-.884 1.967-1.879 2.835-2.754l1.612-1.6c1.039.256 1.96.376 2.994.376 1.493.006 2.786-.702 2.818-1.538.026-.61-.463-.953-.758-1.155a3.42 3.42 0 0 0-1.824-.581c-1.124-.023-2.305.453-3.515 1.422l-.8.692c.008-.004-.29-.084-.29-.084l-2.186-.677c.66-.602 1.228-1.118 1.733-1.56 1.226-1.063 2.563-1.482 3.342-1.516.564-.027 1.555.045 1.954.35.016-.003.048-.044.048-.044-1.066-.966-1.996-1.113-2.77-1.13-.76-.017-1.984.2-3.5 1.352-.62.465-1.432 1.255-2.274 2.088 0-.007-1.105-.371-1.105-.371l-.267-.094-1.162-.384c.028 0 .686-.627.686-.627.8-.769 1.554-1.497 2.149-1.985 2.143-1.755 3.473-1.968 4.397-1.953 1.013.02 1.81.248 2.371.684.021 0 .05-.041.05-.041-1.165-1.115-2.01-1.48-3.475-1.53-1.29-.038-2.848.663-4.382 1.973m-8.418 6.262c-.68-.062-1.01-.352-.995-.888 0-.07.082-1.77 3.91-1.882.441-.015.924-.02 1.667.08-.03.005-.439.372-.439.372l-.243.216c-.943.837-2.52 2.23-3.9 2.102m15.517-1.045c1.118-.732 2.05-1.118 2.615-1.084.34.018.738.13.728.553-.012.437-.421.79-1.229 1.069-.704.237-1.777.278-2.947.12a8.47 8.47 0 0 1 .833-.658M27.62 2.663c.077.036.208.12.254.02.034-.064-.046-.121-.112-.154l-.164-.082-.078.16.1.056zm.106.52l-.098-.049-.05-.381-.101-.056-.143.288-.084-.04.306-.627.269.13c.107.058.204.145.136.277-.056.121-.167.128-.28.075l.045.383zm.362-.203a.542.542 0 0 0-.244-.723.524.524 0 0 0-.711.24.544.544 0 0 0 .241.724.526.526 0 0 0 .714-.24zm-1.068-.466c.12-.332.48-.499.811-.371.33.124.492.489.368.823a.624.624 0 0 1-.814.371.642.642 0 0 1-.365-.823z"/>
    </g>
</svg>
